<svg width="24" height="24" viewBox="0 0 24 24" fill="none" xmlns="http://www.w3.org/2000/svg">
<path d="M5 13.2C5.66274 13.2 6.2 12.6627 6.2 12C6.2 11.3373 5.66274 10.8 5 10.8C4.33726 10.8 3.8 11.3373 3.8 12C3.8 12.6627 4.33726 13.2 5 13.2Z" fill="currentColor"/>
<path d="M12 13.2C12.6627 13.2 13.2 12.6627 13.2 12C13.2 11.3373 12.6627 10.8 12 10.8C11.3373 10.8 10.8 11.3373 10.8 12C10.8 12.6627 11.3373 13.2 12 13.2Z" fill="currentColor"/>
<path d="M19 13.2C19.6627 13.2 20.2 12.6627 20.2 12C20.2 11.3373 19.6627 10.8 19 10.8C18.3373 10.8 17.8 11.3373 17.8 12C17.8 12.6627 18.3373 13.2 19 13.2Z" fill="currentColor"/>
</svg>
